<svg xmlns="http://www.w3.org/2000/svg" width="64" height="64" viewBox="0 0 64 64">
  <path fill="#6D5C49" d="M29.962,18.047C29.971,9.891,37.495,3.28,46.781,3.27c2.71,0,2.716,3.605,0,3.605 c-7.023,0.004-12.717,5.004-12.721,11.172C34.061,20.426,29.962,20.433,29.962,18.047z"/>
  <path fill="#594E43" d="M30.653,14.314c0.919,0.098,1.755-0.477,1.867-1.284c0.018-0.121,0.017-0.242,0-0.363 c-0.091-0.623-0.229-1.239-0.411-1.846c-0.706,1.091-1.249,2.259-1.616,3.473L30.653,14.314z M46.781,6.875h-1.108 c-6.3,0.008-11.645,4.061-12.577,9.532c-0.042,0.311-0.263,0.582-0.583,0.72c-0.638,0.259-0.759,0-2.444-0.554 c-0.152,1.333-0.289,2.766,1.404,3.193l0,0c0.759,0.333,2.451-0.18,2.671-2.6c0-0.22,0.054-0.44,0.085-0.667 C35.106,10.998,40.455,6.898,46.781,6.875z"/>
  <path fill="#9C3" d="M15.717,1.656c0.914,6.634,6.867,11.863,14.42,12.665c0.919,0.103,1.759-0.468,1.875-1.275 c0.019-0.126,0.018-0.253-0.001-0.378c-0.913-6.634-6.867-11.863-14.42-12.665c-0.919-0.103-1.759,0.469-1.875,1.275 C15.698,1.404,15.698,1.531,15.717,1.656z"/>
  <path fill="#80AB2B" d="M32.011,12.667c-0.628-4.512-3.628-8.504-8.105-10.785c4.198,2.322,6.985,6.179,7.589,10.505 c0.096,0.809-0.573,1.534-1.494,1.618c-0.132,0.012-0.265,0.011-0.396-0.005c-2.231-0.235-4.383-0.871-6.323-1.867 c2.065,1.157,4.4,1.893,6.831,2.153c0.918,0.112,1.765-0.451,1.892-1.257C32.025,12.91,32.026,12.788,32.011,12.667z"/>
  <path fill="#D2423F" d="M30.41,63.073c1.019-0.394,2.177-0.394,3.196,0c8.803,3.433,29.858-1.907,29.858-26.704 c0-20.502-19.922-22.715-30.245-18.909c-0.774,0.286-1.647,0.286-2.421,0C20.475,13.654,0.553,15.867,0.553,36.369 C0.56,61.166,21.606,66.506,30.41,63.073z"/>
  <path fill="#DD6966" d="M2.413,36.877c0-18.723,16.613-22.197,27.322-19.757c-10.55-3.333-29.243-0.613-29.243,19.249 c0,17.172,10.094,25.004,19.225,27.063C11.201,60.767,2.413,52.875,2.413,36.877z M35.806,63.693 c-0.456-0.19-0.946-0.312-1.448-0.36C34.831,63.479,35.314,63.6,35.806,63.693z"/>
  <path fill="#BA3B38" d="M56.298,20.153c3.144,3.219,5.206,7.919,5.206,14.511c0,24.257-20.142,29.896-29.265,26.915 c-1.416-0.458-2.971-0.458-4.387,0c-4.956,1.614-13.16,0.667-19.626-4.397c6.906,6.79,16.765,7.998,22.123,5.897 c1.026-0.396,2.193-0.396,3.218,0c8.797,3.439,29.865-1.894,29.865-26.702C63.464,28.499,60.526,23.333,56.298,20.153z"/>
  <path fill="#DD6966" d="M23.321,21.333c-7.589-0.607-20.659,11.759-9.107,29.901C14.237,51.242,9.608,30.951,23.321,21.333z"/>
</svg>
